<svg width="24" height="24" viewBox="0 0 24 24" fill="none" xmlns="http://www.w3.org/2000/svg">
<path fill-rule="evenodd" clip-rule="evenodd" d="M19.5 6.49997C19.1022 6.49997 18.7206 6.658 18.4393 6.93931C18.158 7.22061 18 7.60214 18 7.99997V8.99997H21V7.99997C21 7.60214 20.842 7.22061 20.5607 6.93931C20.2794 6.658 19.8978 6.49997 19.5 6.49997ZM21 9.99997H18V18.25L19.5 20.5L21 18.25V9.99997ZM3 4.49997V19.5C3 19.8978 3.15804 20.2793 3.43934 20.5606C3.72064 20.8419 4.10218 21 4.5 21H15.5C15.8978 21 16.2794 20.8419 16.5607 20.5606C16.842 20.2793 17 19.8978 17 19.5V4.49997C17 4.10214 16.842 3.72061 16.5607 3.43931C16.2794 3.158 15.8978 2.99997 15.5 2.99997H4.5C4.10218 2.99997 3.72064 3.158 3.43934 3.43931C3.15804 3.72061 3 4.10214 3 4.49997ZM10 7.49997C10 7.36736 10.0527 7.24018 10.1464 7.14642C10.2402 7.05265 10.3674 6.99997 10.5 6.99997H14.5C14.6326 6.99997 14.7598 7.05265 14.8536 7.14642C14.9473 7.24018 15 7.36736 15 7.49997C15 7.63258 14.9473 7.75975 14.8536 7.85352C14.7598 7.94729 14.6326 7.99997 14.5 7.99997H10.5C10.3674 7.99997 10.2402 7.94729 10.1464 7.85352C10.0527 7.75975 10 7.63258 10 7.49997ZM10.5 8.99997C10.3674 8.99997 10.2402 9.05265 10.1464 9.14642C10.0527 9.24018 10 9.36736 10 9.49997C10 9.63258 10.0527 9.75976 10.1464 9.85352C10.2402 9.94729 10.3674 9.99997 10.5 9.99997H14.5C14.6326 9.99997 14.7598 9.94729 14.8536 9.85352C14.9473 9.75976 15 9.63258 15 9.49997C15 9.36736 14.9473 9.24018 14.8536 9.14642C14.7598 9.05265 14.6326 8.99997 14.5 8.99997H10.5ZM10 14C10 13.8674 10.0527 13.7402 10.1464 13.6464C10.2402 13.5526 10.3674 13.5 10.5 13.5H14.5C14.6326 13.5 14.7598 13.5526 14.8536 13.6464C14.9473 13.7402 15 13.8674 15 14C15 14.1326 14.9473 14.2598 14.8536 14.3535C14.7598 14.4473 14.6326 14.5 14.5 14.5H10.5C10.3674 14.5 10.2402 14.4473 10.1464 14.3535C10.0527 14.2598 10 14.1326 10 14ZM10.5 15.5C10.3674 15.5 10.2402 15.5526 10.1464 15.6464C10.0527 15.7402 10 15.8674 10 16C10 16.1326 10.0527 16.2598 10.1464 16.3535C10.2402 16.4473 10.3674 16.5 10.5 16.5H14.5C14.6326 16.5 14.7598 16.4473 14.8536 16.3535C14.9473 16.2598 15 16.1326 15 16C15 15.8674 14.9473 15.7402 14.8536 15.6464C14.7598 15.5526 14.6326 15.5 14.5 15.5H10.5ZM6 14V15.5H7.5V14H6ZM5.5 13H8C8.13261 13 8.25979 13.0526 8.35355 13.1464C8.44732 13.2402 8.5 13.3674 8.5 13.5V16C8.5 16.1326 8.44732 16.2598 8.35355 16.3535C8.25979 16.4473 8.13261 16.5 8 16.5H5.5C5.36739 16.5 5.24021 16.4473 5.14645 16.3535C5.05268 16.2598 5 16.1326 5 16V13.5C5 13.3674 5.05268 13.2402 5.14645 13.1464C5.24021 13.0526 5.36739 13 5.5 13ZM8.8535 7.85347C8.94458 7.75917 8.99498 7.63287 8.99384 7.50177C8.9927 7.37067 8.94011 7.24526 8.84741 7.15256C8.75471 7.05986 8.6293 7.00727 8.4982 7.00613C8.3671 7.00499 8.2408 7.05539 8.1465 7.14647L6.5 8.79297L5.8535 8.14647C5.7592 8.05539 5.6329 8.00499 5.5018 8.00613C5.3707 8.00727 5.24529 8.05986 5.15259 8.15256C5.05989 8.24526 5.0073 8.37067 5.00616 8.50177C5.00502 8.63287 5.05542 8.75917 5.1465 8.85347L6.5 10.207L8.8535 7.85347Z" fill="black"/>
</svg>
