<svg width="19" height="19" viewBox="0 0 19 19" fill="none" xmlns="http://www.w3.org/2000/svg">
<path d="M6.33333 13.4583H7.79792L8.25313 12.0729H10.7073L11.1625 13.4583H12.6667L10.2917 6.76871H8.70833L6.33333 13.4583ZM8.62917 10.925L9.5 8.31246L10.351 10.925H8.62917ZM7.125 2.37496V0.791626H11.875V2.37496H7.125ZM9.5 17.4166C8.52361 17.4166 7.60317 17.2287 6.73867 16.853C5.87417 16.4772 5.11892 15.9658 4.47292 15.3187C3.82692 14.6717 3.31576 13.9161 2.93946 13.0522C2.56315 12.1882 2.375 11.268 2.375 10.2916C2.375 9.31524 2.56315 8.39479 2.93946 7.53029C3.31576 6.66579 3.82692 5.91054 4.47292 5.26454C5.11892 4.61854 5.87443 4.10739 6.73946 3.73108C7.60449 3.35478 8.52467 3.16663 9.5 3.16663C10.3181 3.16663 11.1031 3.29857 11.8552 3.56246C12.6073 3.82635 13.3132 4.20899 13.9729 4.71038L15.0813 3.60204L16.1896 4.71038L15.0813 5.81871C15.5826 6.47843 15.9653 7.18433 16.2292 7.93642C16.4931 8.6885 16.625 9.47357 16.625 10.2916C16.625 11.268 16.4368 12.1885 16.0605 13.053C15.6842 13.9175 15.1731 14.6727 14.5271 15.3187C13.8811 15.9647 13.1256 16.4761 12.2605 16.853C11.3955 17.2298 10.4753 17.4177 9.5 17.4166ZM9.5 15.8333C11.0306 15.8333 12.3368 15.2923 13.4188 14.2104C14.5007 13.1284 15.0417 11.8222 15.0417 10.2916C15.0417 8.76107 14.5007 7.45482 13.4188 6.37288C12.3368 5.29093 11.0306 4.74996 9.5 4.74996C7.96944 4.74996 6.66319 5.29093 5.58125 6.37288C4.49931 7.45482 3.95833 8.76107 3.95833 10.2916C3.95833 11.8222 4.49931 13.1284 5.58125 14.2104C6.66319 15.2923 7.96944 15.8333 9.5 15.8333Z" fill="#0170F3"/>
</svg>
