<svg width="29" height="28" viewBox="0 0 29 28" fill="none" xmlns="http://www.w3.org/2000/svg">
<g clip-path="url(#clip0_46_40)">
<path fill-rule="evenodd" clip-rule="evenodd" d="M26.802 12.25C26.8019 10.6687 26.4236 9.11032 25.6987 7.70494C24.9738 6.29957 23.9234 5.08792 22.635 4.17108C21.3466 3.25425 19.8576 2.65882 18.2923 2.43447C16.727 2.21012 15.1307 2.36335 13.6367 2.88138C12.1426 3.39942 10.7941 4.26723 9.70369 5.41242C8.61324 6.55761 7.81246 7.94696 7.36816 9.46457C6.92387 10.9822 6.84894 12.584 7.14963 14.1365C7.45032 15.689 8.11791 17.147 9.0967 18.389L4.83603 22.6496C4.62351 22.8697 4.50592 23.1644 4.50858 23.4703C4.51124 23.7762 4.63393 24.0688 4.85024 24.2851C5.06655 24.5014 5.35917 24.6241 5.66506 24.6268C5.97096 24.6294 6.26566 24.5118 6.4857 24.2993L10.7464 20.0386C12.2086 21.1913 13.9659 21.909 15.817 22.1096C17.6681 22.3102 19.5383 21.9856 21.2136 21.1729C22.8888 20.3602 24.3014 19.0923 25.2898 17.5143C26.2781 15.9363 26.8022 14.1119 26.802 12.25ZM16.8854 4.66664C18.8966 4.66664 20.8254 5.4656 22.2476 6.88775C23.6697 8.3099 24.4687 10.2388 24.4687 12.25C24.4687 14.2612 23.6697 16.1901 22.2476 17.6122C20.8254 19.0344 18.8966 19.8333 16.8854 19.8333C14.8741 19.8333 12.9453 19.0344 11.5231 17.6122C10.101 16.1901 9.30203 14.2612 9.30203 12.25C9.30203 10.2388 10.101 8.3099 11.5231 6.88775C12.9453 5.4656 14.8741 4.66664 16.8854 4.66664Z" fill="#17336B"/>
</g>
<defs>
<clipPath id="clip0_46_40">
<rect width="28" height="28.1801" fill="white" transform="translate(29 -2.28882e-05) rotate(90)"/>
</clipPath>
</defs>
</svg>
